<svg width="26" height="25" viewBox="0 0 26 25" fill="none" xmlns="http://www.w3.org/2000/svg">
<path d="M18.5977 5.3411C19.1729 5.3411 19.6387 4.88894 19.6387 4.33121V1.00989C19.6387 0.452161 19.1729 0 18.5977 0C18.0231 0 17.5568 0.452161 17.5568 1.00989V4.33121C17.5568 4.88894 18.0231 5.3411 18.5977 5.3411ZM7.40228 5.3411C7.97688 5.3411 8.44321 4.88894 8.44321 4.33121V1.00989C8.44321 0.452161 7.97688 0 7.40228 0C6.82713 0 6.36135 0.452161 6.36135 1.00989V4.33121C6.36135 4.88894 6.82713 5.3411 7.40228 5.3411ZM24.6121 2.46817H20.8878V4.33121C20.8878 5.55627 19.8604 6.55297 18.5977 6.55297C17.335 6.55297 16.3077 5.55627 16.3077 4.33121V2.46817H9.69233V4.33121C9.69233 5.55627 8.665 6.55297 7.40228 6.55297C6.13956 6.55297 5.11223 5.55627 5.11223 4.33121V2.46817H1.38791C0.621229 2.46817 0 3.07087 0 3.81469V9.33541H26V3.81469C26 3.07087 25.3788 2.46817 24.6121 2.46817ZM0 23.6535C0 24.3973 0.621229 25 1.38791 25H24.6121C25.3788 25 26 24.3973 26 23.6535V10.4126H0V23.6535Z" fill="#5a5a5a"/>
<path d="M9.18226 22.4619C8.45426 22.4619 7.84759 22.3406 7.36226 22.0979C6.87692 21.8553 6.47559 21.5566 6.15826 21.2019L6.92826 20.1659C7.19892 20.4366 7.50692 20.6699 7.85226 20.8659C8.19759 21.0526 8.59426 21.1459 9.04226 21.1459C9.52759 21.1459 9.91959 21.0293 10.2183 20.7959C10.5263 20.5533 10.6803 20.2219 10.6803 19.8019C10.6803 19.5686 10.6383 19.3586 10.5543 19.1719C10.4703 18.9853 10.3256 18.8266 10.1203 18.6959C9.92426 18.5653 9.65826 18.4673 9.32226 18.4019C8.98626 18.3273 8.56626 18.2899 8.06226 18.2899V17.1139C8.50092 17.1139 8.86492 17.0813 9.15426 17.0159C9.45292 16.9413 9.69092 16.8433 9.86826 16.7219C10.0549 16.5913 10.1856 16.4373 10.2603 16.2599C10.3443 16.0826 10.3863 15.8913 10.3863 15.6859C10.3863 15.3126 10.2696 15.0233 10.0363 14.8179C9.80292 14.6033 9.48092 14.4959 9.07026 14.4959C8.71559 14.4959 8.39359 14.5753 8.10426 14.7339C7.82426 14.8833 7.54892 15.0839 7.27826 15.3359L6.45226 14.3419C6.83492 14.0059 7.24092 13.7353 7.67026 13.5299C8.10892 13.3246 8.59426 13.2219 9.12626 13.2219C9.55559 13.2219 9.94759 13.2733 10.3023 13.3759C10.6569 13.4786 10.9603 13.6326 11.2123 13.8379C11.4643 14.0339 11.6603 14.2813 11.8003 14.5799C11.9403 14.8693 12.0103 15.2006 12.0103 15.5739C12.0103 16.0779 11.8703 16.4979 11.5903 16.8339C11.3196 17.1699 10.9416 17.4313 10.4563 17.6179V17.6739C10.9883 17.8139 11.4269 18.0706 11.7723 18.4439C12.1269 18.8173 12.3043 19.2979 12.3043 19.8859C12.3043 20.2966 12.2203 20.6606 12.0523 20.9779C11.8936 21.2953 11.6696 21.5659 11.3803 21.7899C11.1003 22.0046 10.7689 22.1726 10.3863 22.2939C10.0129 22.4059 9.61159 22.4619 9.18226 22.4619ZM16.584 22.4619C15.6507 22.4619 14.9133 22.0653 14.372 21.2719C13.8307 20.4693 13.56 19.3119 13.56 17.7999C13.56 16.2879 13.8307 15.1493 14.372 14.3839C14.9133 13.6093 15.6507 13.2219 16.584 13.2219C17.5173 13.2219 18.2547 13.6093 18.796 14.3839C19.3373 15.1586 19.608 16.2973 19.608 17.7999C19.608 19.3119 19.3373 20.4693 18.796 21.2719C18.2547 22.0653 17.5173 22.4619 16.584 22.4619ZM16.584 21.2019C16.7987 21.2019 16.9947 21.1459 17.172 21.0339C17.3587 20.9126 17.5173 20.7166 17.648 20.4459C17.7787 20.1753 17.8813 19.8253 17.956 19.3959C18.0307 18.9666 18.068 18.4346 18.068 17.7999C18.068 17.1746 18.0307 16.6519 17.956 16.2319C17.8813 15.8026 17.7787 15.4573 17.648 15.1959C17.5173 14.9346 17.3587 14.7526 17.172 14.6499C16.9947 14.5379 16.7987 14.4819 16.584 14.4819C16.3693 14.4819 16.1687 14.5379 15.982 14.6499C15.8047 14.7526 15.6507 14.9346 15.52 15.1959C15.3893 15.4573 15.2867 15.8026 15.212 16.2319C15.1373 16.6519 15.1 17.1746 15.1 17.7999C15.1 18.4346 15.1373 18.9666 15.212 19.3959C15.2867 19.8253 15.3893 20.1753 15.52 20.4459C15.6507 20.7166 15.8047 20.9126 15.982 21.0339C16.1687 21.1459 16.3693 21.2019 16.584 21.2019Z" fill="white"/>
</svg>
