<?xml version="1.0" standalone="no"?><svg xmlns:xlink="http://www.w3.org/1999/xlink" xmlns="http://www.w3.org/2000/svg" viewBox="0 0 1000 500.00000000000006" preserveAspectRatio="xMaxYMax slice"><g transform="scale(1.091703056768559)"><rect x="0" y="0" width="916" height="458" fill="#f8fafc"/><g transform="translate(274.8,183.2) scale(4.58) rotate(0)"><rect width="20" height="10" fill="#edeeff"/></g><g transform="translate(458,183.2) scale(4.58) rotate(0)"><path d="M13 0H20V7L7 20H0V13L13 0Z" fill="#9fa5fc"/></g><g transform="translate(824.4,183.2) scale(4.58) rotate(0)"><path d="M10 0L20 10L10 20L0 10L10 0Z" fill="#edeffe"/></g><polygon points="0,274.8 91.6,366.4 0,366.4" fill="#e1e4fc"/><g transform="translate(91.6,274.8) scale(4.58) rotate(0)"><path d="M13 0H20V7L7 20H0V13L13 0Z" fill="#daddfc"/></g><polygon points="274.79999999999995,274.8 274.79999999999995,366.4 183.2,366.4" fill="#bfc3fc"/><path d="M 366.4 366.4 A 91.6 91.6 0 0 1  458 274.8 L 366.4 366.4 A 91.6 91.6 0 0 0 458 274.8" fill="#ecedff"/><path d="M 458 274.8 A 91.6 91.6 0 0 0 549.6 366.4 L 549.6 274.8" fill="#eff1fe"/><path d="M 549.6 366.4 A 91.6 91.6 0 0 1  641.2 274.8 L 549.6 366.4 A 91.6 91.6 0 0 0 641.2 274.8" fill="#b7bcfc"/><g transform="translate(641.2,274.8) scale(4.58) rotate(0)"><path fill-rule="evenodd" clip-rule="evenodd" d="M10 20C15.5228 20 20 15.5228 20 10C20 4.47715 15.5228 0 10 0C4.47715 0 0 4.47715 0 10C0 15.5228 4.47715 20 10 20ZM10 17C13.866 17 17 13.866 17 10C17 6.13401 13.866 3 10 3C6.13401 3 3 6.13401 3 10C3 13.866 6.13401 17 10 17Z" fill="#acb2fc"/></g><path d="M 732.8 366.4 A 91.6 91.6 0 0 1  824.4 274.8 L 732.8 366.4 A 91.6 91.6 0 0 0 824.4 274.8" fill="#ecedff"/><g transform="translate(824.4,274.8) scale(4.58) rotate(0)"><path fill-rule="evenodd" clip-rule="evenodd" d="M10 20C15.5228 20 20 15.5228 20 10C20 4.47715 15.5228 0 10 0C4.47715 0 0 4.47715 0 10C0 15.5228 4.47715 20 10 20ZM10 17C13.866 17 17 13.866 17 10C17 6.13401 13.866 3 10 3C6.13401 3 3 6.13401 3 10C3 13.866 6.13401 17 10 17Z" fill="#f1f3fe"/></g><path d="M 0 458 A 91.6 91.6 0 0 0 91.6 366.4 L 0 366.4" fill="#f1f3fe"/><polygon points="91.6,366.4 183.2,366.4 183.2,458" fill="#bec3fc"/><g transform="translate(183.2,366.4) scale(4.58) rotate(0)"><path d="M13 0H20V7L7 20H0V13L13 0Z" fill="#f6f8fc"/></g><g transform="translate(274.8,366.4) scale(4.58) rotate(0)"><path d="M10 0L20 10L10 20L0 10L10 0Z" fill="#babffc"/></g><polygon points="458,366.4 458,458 366.4,458" fill="#f1f2fe"/><path d="M 458 458 A 91.6 91.6 0 0 0 549.6 366.4 L 458 366.4" fill="#d4d8fc"/><g transform="translate(549.6,366.4) scale(4.58) rotate(0)"><path fill-rule="evenodd" clip-rule="evenodd" d="M10 20C15.5228 20 20 15.5228 20 10C20 4.47715 15.5228 0 10 0C4.47715 0 0 4.47715 0 10C0 15.5228 4.47715 20 10 20ZM10 17C13.866 17 17 13.866 17 10C17 6.13401 13.866 3 10 3C6.13401 3 3 6.13401 3 10C3 13.866 6.13401 17 10 17Z" fill="#f0f2fc"/></g><rect x="641.2" y="366.4" width="91.6" height="91.6" fill="#adb3fc"/><polygon points="824.4,366.4 824.4,458 732.8,458" fill="#eeeffe"/><g transform="translate(824.4,366.4) scale(4.58) rotate(0)"><path d="M13 0H20V7L7 20H0V13L13 0Z" fill="#f0f3fc"/></g></g></svg>